<svg class="h-6" xmlns="http://www.w3.org/2000/svg" width="29" height="30" viewBox="0 0 29 30" fill="none"><path d="M25.7905 8.39117L23.5997 6.20258C23.4296 6.03253 23.199 5.937 22.9585 5.937C22.718 5.937 22.4874 6.03253 22.3173 6.20258C22.1473 6.37263 22.0517 6.60326 22.0517 6.84375C22.0517 7.08424 22.1473 7.31487 22.3173 7.48492L24.5059 9.67578C24.675 9.84505 24.7703 10.0743 24.771 10.3136V19.5312C24.771 19.7716 24.6755 20.0021 24.5056 20.1721C24.3356 20.342 24.1051 20.4375 23.8647 20.4375C23.6244 20.4375 23.3939 20.342 23.2239 20.1721C23.054 20.0021 22.9585 19.7716 22.9585 19.5312V15C22.9585 14.2789 22.6721 13.5874 22.1622 13.0776C21.6523 12.5677 20.9608 12.2812 20.2397 12.2812H18.4272V6.84375C18.4272 6.12269 18.1408 5.43117 17.6309 4.9213C17.1211 4.41144 16.4296 4.125 15.7085 4.125H6.646C5.92494 4.125 5.23341 4.41144 4.72355 4.9213C4.21368 5.43117 3.92725 6.12269 3.92725 6.84375V24.0625H2.11475C1.87439 24.0625 1.64389 24.158 1.47393 24.3279C1.30398 24.4979 1.2085 24.7284 1.2085 24.9688C1.2085 25.2091 1.30398 25.4396 1.47393 25.6096C1.64389 25.7795 1.87439 25.875 2.11475 25.875H20.2397C20.4801 25.875 20.7106 25.7795 20.8806 25.6096C21.0505 25.4396 21.146 25.2091 21.146 24.9688C21.146 24.7284 21.0505 24.4979 20.8806 24.3279C20.7106 24.158 20.4801 24.0625 20.2397 24.0625H18.4272V14.0938H20.2397C20.4801 14.0938 20.7106 14.1892 20.8806 14.3592C21.0505 14.5291 21.146 14.7596 21.146 15V19.5312C21.146 20.2523 21.4324 20.9438 21.9423 21.4537C22.4522 21.9636 23.1437 22.25 23.8647 22.25C24.5858 22.25 25.2773 21.9636 25.7872 21.4537C26.2971 20.9438 26.5835 20.2523 26.5835 19.5312V10.3136C26.5849 9.95663 26.5155 9.60297 26.3794 9.27302C26.2433 8.94306 26.0431 8.64334 25.7905 8.39117ZM5.73975 24.0625V6.84375C5.73975 6.6034 5.83523 6.37289 6.00518 6.20293C6.17514 6.03298 6.40564 5.9375 6.646 5.9375H15.7085C15.9488 5.9375 16.1794 6.03298 16.3493 6.20293C16.5193 6.37289 16.6147 6.6034 16.6147 6.84375V24.0625H5.73975ZM14.8022 13.1875C14.8022 13.4279 14.7068 13.6584 14.5368 13.8283C14.3669 13.9983 14.1363 14.0938 13.896 14.0938H8.4585C8.21814 14.0938 7.98764 13.9983 7.81768 13.8283C7.64773 13.6584 7.55225 13.4279 7.55225 13.1875C7.55225 12.9471 7.64773 12.7166 7.81768 12.5467C7.98764 12.3767 8.21814 12.2812 8.4585 12.2812H13.896C14.1363 12.2812 14.3669 12.3767 14.5368 12.5467C14.7068 12.7166 14.8022 12.9471 14.8022 13.1875Z" fill="white"/></svg>