<svg class="h-6" xmlns="http://www.w3.org/2000/svg" width="29" height="30" viewBox="0 0 29 30" fill="none"><path d="M27.1875 12.2777H23.9375L19.0313 7.37151C18.8636 7.20247 18.6639 7.06845 18.444 6.97724C18.224 6.88604 17.9881 6.83946 17.75 6.84022H5.01609C4.71838 6.84077 4.42539 6.91465 4.16301 7.05532C3.90064 7.19599 3.67695 7.39913 3.51172 7.64678L0.151797 12.681C0.0530744 12.8302 0.000295503 13.0051 0 13.184L0 18.6215C0 19.1022 0.190959 19.5632 0.530869 19.9031C0.870779 20.243 1.3318 20.434 1.8125 20.434H3.73828C3.93793 21.2137 4.39142 21.9048 5.02725 22.3984C5.66308 22.8919 6.4451 23.1598 7.25 23.1598C8.0549 23.1598 8.83692 22.8919 9.47275 22.3984C10.1086 21.9048 10.5621 21.2137 10.7617 20.434H18.2383C18.4379 21.2137 18.8914 21.9048 19.5273 22.3984C20.1631 22.8919 20.9451 23.1598 21.75 23.1598C22.5549 23.1598 23.3369 22.8919 23.9728 22.3984C24.6086 21.9048 25.0621 21.2137 25.2617 20.434H27.1875C27.6682 20.434 28.1292 20.243 28.4691 19.9031C28.809 19.5632 29 19.1022 29 18.6215V14.0902C29 13.6095 28.809 13.1485 28.4691 12.8086C28.1292 12.4687 27.6682 12.2777 27.1875 12.2777ZM5.01609 8.65272H17.75L21.375 12.2777H2.60547L5.01609 8.65272ZM7.25 21.3402C6.89152 21.3402 6.54109 21.2339 6.24303 21.0348C5.94497 20.8356 5.71265 20.5525 5.57547 20.2213C5.43828 19.8901 5.40239 19.5257 5.47233 19.1741C5.54226 18.8225 5.71489 18.4996 5.96837 18.2461C6.22185 17.9926 6.54481 17.82 6.8964 17.75C7.24799 17.6801 7.61242 17.716 7.94361 17.8532C8.27481 17.9904 8.55788 18.2227 8.75704 18.5207C8.9562 18.8188 9.0625 19.1692 9.0625 19.5277C9.0625 20.0084 8.87154 20.4694 8.53163 20.8094C8.19172 21.1493 7.73071 21.3402 7.25 21.3402ZM21.75 21.3402C21.3915 21.3402 21.0411 21.2339 20.743 21.0348C20.445 20.8356 20.2127 20.5525 20.0755 20.2213C19.9383 19.8901 19.9024 19.5257 19.9723 19.1741C20.0423 18.8225 20.2149 18.4996 20.4684 18.2461C20.7219 17.9926 21.0448 17.82 21.3964 17.75C21.748 17.6801 22.1124 17.716 22.4436 17.8532C22.7748 17.9904 23.0579 18.2227 23.257 18.5207C23.4562 18.8188 23.5625 19.1692 23.5625 19.5277C23.5625 20.0084 23.3715 20.4694 23.0316 20.8094C22.6917 21.1493 22.2307 21.3402 21.75 21.3402ZM27.1875 18.6215H25.2617C25.0621 17.8417 24.6086 17.1506 23.9728 16.657C23.3369 16.1635 22.5549 15.8956 21.75 15.8956C20.9451 15.8956 20.1631 16.1635 19.5273 16.657C18.8914 17.1506 18.4379 17.8417 18.2383 18.6215H10.7617C10.5621 17.8417 10.1086 17.1506 9.47275 16.657C8.83692 16.1635 8.0549 15.8956 7.25 15.8956C6.4451 15.8956 5.66308 16.1635 5.02725 16.657C4.39142 17.1506 3.93793 17.8417 3.73828 18.6215H1.8125V14.0902H27.1875V18.6215Z" fill="white"/></svg>