<svg class="h-6" xmlns="http://www.w3.org/2000/svg" width="29" height="30" viewBox="0 0 29 30" fill="none"><path d="M26.2812 13.1875H24.8437L20.8438 9.18754C20.6761 9.0185 20.4764 8.88448 20.2565 8.79327C20.0365 8.70207 19.8006 8.65549 19.5625 8.65625H14.9531V5.9375H17.6719C17.9122 5.9375 18.1427 5.84202 18.3127 5.67207C18.4826 5.50211 18.5781 5.2716 18.5781 5.03125C18.5781 4.7909 18.4826 4.56039 18.3127 4.39043C18.1427 4.22048 17.9122 4.125 17.6719 4.125H10.4219C10.1815 4.125 9.95101 4.22048 9.78106 4.39043C9.6111 4.56039 9.51562 4.7909 9.51562 5.03125C9.51562 5.2716 9.6111 5.50211 9.78106 5.67207C9.95101 5.84202 10.1815 5.9375 10.4219 5.9375H13.1406V8.65625H6.34375C5.86305 8.65625 5.40203 8.84721 5.06212 9.18712C4.72221 9.52703 4.53125 9.98805 4.53125 10.4688V16.3594H1.8125V13.6406C1.8125 13.4003 1.71702 13.1698 1.54707 12.9998C1.37711 12.8299 1.1466 12.7344 0.90625 12.7344C0.665898 12.7344 0.435389 12.8299 0.265434 12.9998C0.0954796 13.1698 0 13.4003 0 13.6406V20.8906C0 21.131 0.0954796 21.3615 0.265434 21.5314C0.435389 21.7014 0.665898 21.7969 0.90625 21.7969C1.1466 21.7969 1.37711 21.7014 1.54707 21.5314C1.71702 21.3615 1.8125 21.131 1.8125 20.8906V18.1719H4.53125V20.5157C4.53049 20.7538 4.57707 20.9897 4.66827 21.2096C4.75948 21.4296 4.8935 21.6292 5.06254 21.7969L9.51562 26.25C9.68332 26.419 9.88295 26.553 10.1029 26.6442C10.3228 26.7354 10.5587 26.782 10.7968 26.7813H19.5625C19.8006 26.782 20.0365 26.7354 20.2565 26.6442C20.4764 26.553 20.6761 26.419 20.8438 26.25L24.8437 22.25H26.2812C26.762 22.25 27.223 22.059 27.5629 21.7191C27.9028 21.3792 28.0938 20.9182 28.0938 20.4375V15C28.0938 14.5193 27.9028 14.0583 27.5629 13.7184C27.223 13.3785 26.762 13.1875 26.2812 13.1875ZM26.2812 20.4375H24.4688C24.3497 20.4374 24.2318 20.4608 24.1218 20.5063C24.0118 20.5517 23.9118 20.6184 23.8276 20.7026L19.5625 24.9688H10.7968L6.34375 20.5157V10.4688H19.5625L23.8276 14.7349C23.9118 14.8191 24.0118 14.8858 24.1218 14.9312C24.2318 14.9767 24.3497 15.0001 24.4688 15H26.2812V20.4375Z" fill="white"/></svg>