<svg class="h-6" xmlns="http://www.w3.org/2000/svg" width="29" height="30" viewBox="0 0 29 30" fill="none"><path d="M22.852 10.2426C21.6773 9.06519 20.2811 8.13199 18.744 7.49681C17.2068 6.86162 15.5592 6.537 13.896 6.54168H13.8507C6.88049 6.56546 1.2085 12.319 1.2085 19.3572V21.9479C1.2085 22.4286 1.39946 22.8896 1.73936 23.2296C2.07927 23.5695 2.54029 23.7604 3.021 23.7604H24.771C25.2517 23.7604 25.7127 23.5695 26.0526 23.2296C26.3925 22.8896 26.5835 22.4286 26.5835 21.9479V19.2292C26.5882 17.5587 26.2607 15.904 25.6201 14.3612C24.9795 12.8184 24.0385 11.4184 22.852 10.2426ZM24.771 21.9479H12.9569L19.1602 13.4178C19.3017 13.2235 19.3602 12.9808 19.3228 12.7433C19.2854 12.5058 19.1552 12.2929 18.9608 12.1514C18.7664 12.0099 18.5238 11.9514 18.2863 11.9888C18.0488 12.0261 17.8358 12.1564 17.6943 12.3507L10.7151 21.9479H3.021V19.3572C3.021 19.0083 3.03799 18.6639 3.06971 18.3229H5.73975C5.9801 18.3229 6.21061 18.2274 6.38056 18.0575C6.55052 17.8875 6.646 17.657 6.646 17.4167C6.646 17.1763 6.55052 16.9458 6.38056 16.7759C6.21061 16.6059 5.9801 16.5104 5.73975 16.5104H3.39143C4.56049 12.1083 8.3758 8.78011 12.9897 8.39269V11.0729C12.9897 11.3133 13.0852 11.5438 13.2552 11.7137C13.4251 11.8837 13.6556 11.9792 13.896 11.9792C14.1363 11.9792 14.3669 11.8837 14.5368 11.7137C14.7068 11.5438 14.8022 11.3133 14.8022 11.0729V8.39156C17.0505 8.58076 19.1845 9.46354 20.9094 10.9179C22.6342 12.3723 23.8648 14.3265 24.4312 16.5104H22.0522C21.8119 16.5104 21.5814 16.6059 21.4114 16.7759C21.2415 16.9458 21.146 17.1763 21.146 17.4167C21.146 17.657 21.2415 17.8875 21.4114 18.0575C21.5814 18.2274 21.8119 18.3229 22.0522 18.3229H24.7336C24.7574 18.6231 24.771 18.9244 24.771 19.2292V21.9479Z" fill="white"/></svg>